# xmcd
#
# Track frame offsets: 
#        150
#        11740
#        21305
#        31220
#        42135
#        54380
#        60530
#        73650
#        83045
#        96425
#        107600
#        115327
#        126385
#        138770
#        172280
#
# Disc length: 2522 seconds
#
# Revision: 0
# Processed by: cddbd v1.5.1PL2 Copyright (c) Steve Scherf et al.
# Submitted via: ExactAudioCopy v0.95b3
#
DISCID=ce09d80f
DTITLE=Thom Bresh - Son of a Guitar Pickin' Man
DYEAR=1900
DGENRE=Country
TTITLE0=Son of a Guitar Pickin' Man
TTITLE1=Blue Smoke
TTITLE2=Guitar Rag
TTITLE3=Walkin' Backwards
TTITLE4=Dance of the Goldenrod
TTITLE5=Cascade
TTITLE6=Childhood Memories
TTITLE7=White Heat
TTITLE8=Whatever Blows Your Dress Up
TTITLE9=Rockabye Rag
TTITLE10=Bugle Call Rag
TTITLE11=I'll Cry Instead
TTITLE12=Bullshot!
TTITLE13=My Guitar Heroes
TTITLE14=Guitar In the Window
EXTD=
EXTT0=
EXTT1=
EXTT2=
EXTT3=
EXTT4=
EXTT5=
EXTT6=
EXTT7=
EXTT8=
EXTT9=
EXTT10=
EXTT11=
EXTT12=
EXTT13=
EXTT14=
PLAYORDER=
